<svg width="48" height="51" viewBox="0 0 48 51" fill="none" xmlns="http://www.w3.org/2000/svg">
<path d="M23 11.3335C23 10.7812 23.4477 10.3335 24 10.3335C24.5523 10.3335 25 10.7812 25 11.3335V12.3335C25 12.8858 24.5523 13.3335 24 13.3335C23.4477 13.3335 23 12.8858 23 12.3335V11.3335Z" fill="#006666"/>
<path d="M11 25.3335C10.4477 25.3335 10 24.8858 10 24.3335C10 23.7812 10.4477 23.3335 11 23.3335H12C12.5523 23.3335 13 23.7812 13 24.3335C13 24.8858 12.5523 25.3335 12 25.3335H11Z" fill="#006666"/>
<path d="M23 36.3335C23 35.7812 23.4477 35.3335 24 35.3335C24.5523 35.3335 25 35.7812 25 36.3335V37.3335C25 37.8858 24.5523 38.3335 24 38.3335C23.4477 38.3335 23 37.8858 23 37.3335V36.3335Z" fill="#006666"/>
<path d="M36 25.3335C35.4477 25.3335 35 24.8858 35 24.3335C35 23.7812 35.4477 23.3335 36 23.3335H37C37.5523 23.3335 38 23.7812 38 24.3335C38 24.8858 37.5523 25.3335 37 25.3335H36Z" fill="#006666"/>
<path d="M23 17.3335C23 16.7812 23.4477 16.3335 24 16.3335C24.5523 16.3335 25 16.7812 25 17.3335V25.3335H23V17.3335Z" fill="#006666"/>
<path d="M23 23.3335H32C32.5523 23.3335 33 23.7812 33 24.3335C33 24.8858 32.5523 25.3335 32 25.3335H23V23.3335Z" fill="#006666"/>
<circle cx="24" cy="24.3335" r="17" stroke="#006666" stroke-width="2"/>
</svg>
